<?xml version="1.0" encoding="UTF-8"?><svg xmlns="http://www.w3.org/2000/svg" xmlns:xlink="http://www.w3.org/1999/xlink" width="101.80406188964844" height="93.16569519042969" viewBox="-0.504058837890625 -0.5 101.80406188964844 93.16569519042969" version="1.1">
    <!-- Generator: Sketch 49.3 (51167) - http://www.bohemiancoding.com/sketch -->
    <title>资源 192</title>
    <desc>Created with Sketch.</desc>
    <defs/>
    <g id="Page-1" stroke="none" fill-rule="evenodd">
        <g id="资源-192" fill-rule="nonzero">
            <path d="M 34.08 0 C 38 2.56 47.15 13.18 50.14 18.33 L 52.29 18.33 C 51.13 14.52 46.55 5.07 43.29 0.06 L 34.08 0 Z " id="Shape" fill="#452B12" stroke-width="1"/>
            <path d="M 49.72 18.4 C 49.72 18.4 57.34 -10.6 86.72 4.7 C 86.72 4.7 78.95 26.95 49.72 18.4 Z " id="Shape" fill="#7BD817" stroke-width="1"/>
            <path d="M 80.47 12.66 C 65.15 9.28 50.52 17.61 50.52 17.61 C 50.52 17.61 36 9.11 20.64 12.3 C 5.28 15.49 -7.63 30.08 5.29 62.58 C 14.5 85.66 26 93.77 37.32 91.65 C 48.64 89.53 50.09 89.9 50.09 89.9 C 50.09 89.9 51.56 89.55 62.87 91.8 C 74.18 94.05 85.77 86.09 95.23 63.12 C 108.52 30.78 95.79 16.04 80.47 12.66 Z " id="Shape" fill="#E23807" stroke-width="1"/>
            <path d="M 80.45 53.35 C 79 52.44 79 49.67 79.31 46.2 C 79.4801 44.422 79.5202 42.6339 79.43 40.85 C 79.3477 39.3286 78.942 37.8423 78.24 36.49 C 77 33.97 73.49 31.49 70.61 29.6 C 67.73 27.71 65.52 26.05 65.61 24.32 C 65.7 22.59 68.31 21.14 72.82 21.12 C 75.5594 21.1738 78.2586 21.7898 80.75 22.93 C 84.2817 24.5196 87.2065 27.2059 89.09 30.59 C 90.9842 34.1073 91.5621 38.1848 90.72 42.09 C 90.1784 44.8237 89.0227 47.3985 87.34 49.62 C 84.61 53.14 81.87 54.23 80.45 53.35 Z " id="Shape" fill="#FF4351" stroke-width="1"/>
            <path d="M 18.25 28.22 C 18.25 28.22 25.18 2 51.66 15.86 C 51.66 15.86 44.66 35.95 18.25 28.22 Z " id="Shape" fill="#7BD817" stroke-width="1"/>
        </g>
    </g>
</svg>