<?xml version="1.0" encoding="UTF-8"?><svg xmlns="http://www.w3.org/2000/svg" xmlns:xlink="http://www.w3.org/1999/xlink" width="119.4677963256836" height="130.0500030517578" viewBox="-0.49779272079467773 -0.5 119.4677963256836 130.0500030517578" version="1.1">
    <!-- Generator: Sketch 49.3 (51167) - http://www.bohemiancoding.com/sketch -->
    <title>资源 189</title>
    <desc>Created with Sketch.</desc>
    <defs/>
    <g id="Page-1" stroke="none" fill-rule="evenodd">
        <g id="资源-189" fill-rule="nonzero">
            <path d="M118.47,18.53 C118.47,18.53 36.2,64.41 16.39,129.05 C16.36,128.66 -43.13,112.16 118.47,18.53 Z" id="Shape" fill="#FFFFFF" stroke-width="1"/>
            <path d="M27.88,32.5 C22.6805512,30.4133958 17.3322951,28.7186671 11.88,27.43 L5.36,33.9 C8.82,33.17 17.61,33.59 24.2,34.49 C25.38,33.96 26.68,33.49 28.07,32.99 C28,32.83 27.94,32.67 27.88,32.5 Z" id="Shape" fill="#452B12" stroke-width="1"/>
            <path d="M28.63,32.81 L27.88,32.5 C27.94,32.67 28.01,32.83 28.07,32.99 L28.63,32.81 Z" id="Shape" fill="#7BD817" stroke-width="1"/>
            <path d="M29.87,33.35 L29.15,33 C29.26,33.26 29.41,33.66 29.59,34.18 C29.66,34 29.75,33.7 29.87,33.35 Z" id="Shape" fill="#7BD817" stroke-width="1"/>
            <path d="M27.88,32.5 L28.63,32.81 C28.75,32.81 28.87,32.72 29,32.69 C29.13,32.66 29.06,32.81 29.15,33.03 L29.87,33.35 C30.37,33.58 30.87,33.8 31.2,34 L29.91,35.27 C29.9274663,35.3581407 29.9508526,35.4450042 29.98,35.53 C44.68,27.27 47.85,17 47.82,9.62 C47.8381255,6.31639361 47.1849156,3.04353998 45.9,0 C21.27,7.73 25,25.16 27.88,32.5 Z" id="Shape" fill="#7BD817" stroke-width="1"/>
            <path d="M29.91,35.27 L31.2,34 C30.83,33.8 30.37,33.58 29.87,33.35 C29.75,33.7 29.66,33.99 29.59,34.21 C29.69,34.52 29.8,34.87 29.91,35.27 Z" id="Shape" fill="#E23807" stroke-width="1"/>
            <path d="M24.2,34.49 C19.29,36.7 16.06,39.43 14,42.35 C18.2932577,39.2524055 23.0301056,36.8216103 28.05,35.14 C26.93,34.91 25.62,34.69 24.2,34.49 Z" id="Shape" fill="#7BD817" stroke-width="1"/>
            <path d="M28.92,34.87 C28.68,34.4 28.39,33.76 28.07,32.99 C26.68,33.46 25.38,33.99 24.2,34.49 C25.62,34.69 26.93,34.91 28.07,35.14 L28.92,34.87 Z" id="Shape" fill="#7BD817" stroke-width="1"/>
            <path d="M29,32.69 C28.87,32.69 28.75,32.77 28.63,32.81 L29.15,33.03 C29.06,32.81 29,32.69 29,32.69 Z" id="Shape" fill="#7BD817" stroke-width="1"/>
            <path d="M29.59,34.21 C29.41,33.69 29.26,33.29 29.15,33.03 L28.63,32.81 L28.07,32.99 C28.39,33.76 28.68,34.4 28.92,34.87 L29.43,34.73 C29.43,34.73 29.48,34.54 29.59,34.21 Z" id="Shape" fill="#7BD817" stroke-width="1"/>
            <path d="M14.12,65.05 C32.59,54.94 31.5,41.35 30,35.53 C29.81,35.64 29.64,35.75 29.45,35.85 L29.2,35.39 C28.85,35.3 28.48,35.22 28.09,35.14 C23.0875601,36.8262172 18.3678727,39.2568562 14.09,42.35 C6.85,52.56 14.12,65.05 14.12,65.05 Z" id="Shape" fill="#7BD817" stroke-width="1"/>
            <path d="M28.07,35.14 C28.46,35.22 28.83,35.3 29.18,35.39 C29.1,35.25 29.02,35.07 28.92,34.87 L28.07,35.14 Z" id="Shape" fill="#7BD817" stroke-width="1"/>
            <path d="M29.67,35.51 L29.18,35.39 L29.43,35.85 C29.62,35.75 29.79,35.64 29.98,35.53 C29.9508526,35.4450042 29.9274663,35.3581407 29.91,35.27 L29.67,35.51 Z" id="Shape" fill="#7BD817" stroke-width="1"/>
            <path d="M29.91,35.27 C29.8,34.87 29.69,34.52 29.59,34.21 C29.48,34.54 29.43,34.73 29.43,34.73 L28.92,34.87 C29.02,35.07 29.1,35.25 29.18,35.39 L29.67,35.51 L29.91,35.27 Z" id="Shape" fill="#7BD817" stroke-width="1"/>
            <path d="M19.09,93.53 C19.2396409,93.6477612 19.4328519,93.6951525 19.62,93.66 L19,93.29 C19.0123623,93.3755489 19.0430627,93.4574167 19.09,93.53 Z" id="Shape" fill="#5DB046" stroke-width="1"/>
            <path d="M88,24.66 C88.0327211,24.7319969 88.0694452,24.8021065 88.11,24.87 C88.0896597,24.7925923 88.0520524,24.7207965 88,24.66 Z" id="Shape" fill="#5DB046" stroke-width="1"/>
            <path d="M47.82,9.62 C47.85,17 44.68,27.27 30,35.53 C31.52,41.35 32.61,54.94 14.14,65.05 C14.14,65.05 6.87,52.56 14.04,42.35 C10.3181353,45.0052604 7.10371825,48.3077437 4.55,52.1 C-3,63.64 -3,80.08 19,93.29 L19.65,93.66 C23,93.4 38.86,80 56.64,62.21 C75.06,43.79 88.8,27.44 88.07,24.87 C88.0294452,24.8021065 87.9927211,24.7319969 87.96,24.66 C75.29,3.27 59.36,2.68 47.82,9.62 Z M78.12,31.31 C78.66,35.75 77.5,38.46 75.87,38.84 C74.55,39.14 73.08,37.98 71.42,36.18 C70.96,35.6866667 70.49,35.1566667 70.01,34.59 C68.8677522,33.2158935 67.631444,31.922782 66.31,30.72 C65.1786187,29.70151 63.8418619,28.9376489 62.39,28.48 C59.73,27.57 55.47,28.28 52.11,29 C48.75,29.72 46,30.09 44.87,28.78 C43.74,27.47 44.53,24.62 47.71,21.42 C49.6842457,19.5179338 52.0298485,18.0438467 54.6,17.09 C58.2202724,15.7178396 62.1864852,15.5495123 65.91,16.61 C69.7369224,17.7663433 73.0268501,20.2479698 75.19,23.61 C76.6061342,25.7220638 77.566553,28.1060822 78.01,30.61 C78.05,30.86 78.09,31.09 78.12,31.31 Z" id="Shape" fill="#E23807" stroke-width="1"/>
            <path d="M65.91,16.61 C62.1864852,15.5495123 58.2202724,15.7178396 54.6,17.09 C52.0298485,18.0438467 49.6842457,19.5179338 47.71,21.42 C44.53,24.62 43.8,27.51 44.87,28.78 C45.94,30.05 48.69,29.7 52.11,29 C55.53,28.3 59.73,27.57 62.39,28.48 C63.8418619,28.9376489 65.1786187,29.70151 66.31,30.72 C67.6280027,31.923128 68.8609618,33.2162315 70,34.59 C70.48,35.1566667 70.95,35.6866667 71.41,36.18 C73.07,37.98 74.54,39.18 75.86,38.84 C77.49,38.46 78.65,35.75 78.11,31.31 C78.11,31.09 78.04,30.86 78,30.62 C77.556553,28.1160822 76.5961342,25.7320638 75.18,23.62 C73.0210816,20.2561014 69.7347694,17.770983 65.91,16.61 Z" id="Shape" fill="#FF4351" stroke-width="1"/>
            <path d="M69.55,75.12 C51.77,92.9 35.92,106.31 32.55,106.57 C35.653283,108.384053 38.8661208,110.003831 42.17,111.42 C65.01,121.23 78.86,118.84 85.38,109.33 C91.9,99.82 93.17,99.06 93.17,99.06 C93.17,99.06 93.96,97.77 103.55,91.37 C113.14,84.97 115.71,71.13 106.15,48.2 C104.670869,44.6142361 102.950254,41.1329149 101,37.78 C101.7,40.35 88,56.7 69.55,75.12 Z" id="Shape" fill="#E23807" stroke-width="1"/>
            <path d="M32,106.43 C32.1453211,106.556475 32.3411772,106.60821 32.53,106.57 L31.88,106.19 C31.8952597,106.280148 31.9370375,106.363703 32,106.43 Z" id="Shape" fill="#5DB046" stroke-width="1"/>
            <path d="M100.86,37.57 L100.98,37.78 C100.964655,37.6985335 100.922396,37.6245803 100.86,37.57 Z" id="Shape" fill="#5DB046" stroke-width="1"/>
            <path d="M90.92,43.53 C88.92,45.12 86.72,46.99 84.32,49.09 C78.23,54.42 70.95,61.25 63.32,68.88 C44.97,87.24 31.32,103.53 31.89,106.19 L32.54,106.57 C35.93,106.31 51.78,92.9 69.54,75.12 C88,56.7 101.7,40.35 101,37.78 L100.88,37.57 C100.1,36.81 96.42,39.11 90.92,43.53 Z" id="Shape" fill="#FFF9C5" stroke-width="1"/>
            <path d="M73.22,60.16 C71.54,61.37 69.3,64.16 69.96,65.05 C70.62,65.94 73.96,64.73 75.63,63.53 C77.3,62.33 78.45,61.04 77.46,59.66 C76.47,58.28 74.9,59 73.22,60.16 Z" id="Shape" fill="#754A22" stroke-width="1"/>
            <path d="M73.77,61.42 C72.64,62.24 70.95,63.85 71.18,64.18 C71.41,64.51 73.48,63.41 74.62,62.59 C75.76,61.77 76.62,61.01 76.25,60.53 C75.88,60.05 74.91,60.61 73.77,61.42 Z" id="Shape" fill="#88552B" stroke-width="1"/>
            <path d="M61.1,78.17 C62.1,76.37 62.96,72.92 61.97,72.37 C60.98,71.82 58.49,74.37 57.48,76.16 C56.47,77.95 55.99,79.61 57.48,80.44 C58.97,81.27 60.1,80 61.1,78.17 Z" id="Shape" fill="#754A22" stroke-width="1"/>
            <path d="M60.06,77.27 C60.74,76.05 61.59,73.87 61.24,73.67 C60.89,73.47 59.48,75.35 58.8,76.57 C58.12,77.79 57.68,78.84 58.2,79.13 C58.72,79.42 59.38,78.49 60.06,77.27 Z" id="Shape" fill="#88552B" stroke-width="1"/>
            <path d="M73,65.47 C71,65.72 67.66,67.05 67.79,68.19 C67.92,69.33 71.44,69.83 73.49,69.58 C75.54,69.33 77.17,68.76 76.96,67.07 C76.75,65.38 75,65.22 73,65.47 Z" id="Shape" fill="#754A22" stroke-width="1"/>
            <path d="M72.83,66.84 C71.44,67.01 69.18,67.61 69.23,68.01 C69.28,68.41 71.61,68.44 73,68.27 C74.39,68.1 75.5,67.84 75.43,67.27 C75.36,66.7 74.22,66.68 72.83,66.84 Z" id="Shape" fill="#88552B" stroke-width="1"/>
            <path d="M66.8,75.31 C66.86,73.24 66.04,69.79 64.9,69.76 C63.76,69.73 62.72,73.12 62.66,75.18 C62.6,77.24 62.93,78.94 64.66,78.99 C66.39,79.04 66.74,77.38 66.8,75.31 Z" id="Shape" fill="#754A22" stroke-width="1"/>
            <path d="M65.46,75 C65.46,73.6 65.25,71.27 64.85,71.26 C64.45,71.25 64.06,73.56 64.02,74.95 C63.98,76.34 64.02,77.49 64.66,77.5 C65.3,77.51 65.42,76.38 65.46,75 Z" id="Shape" fill="#88552B" stroke-width="1"/>
        </g>
    </g>
</svg>